<?xml version="1.0" encoding="UTF-8"?>
<svg id="Layer_2" data-name="Layer 2" xmlns="http://www.w3.org/2000/svg" viewBox="0 0 340.6 75.72">
  <defs>
    <style>
      .cls-1 {
        fill: #231f20;
      }

      .cls-1, .cls-2, .cls-3 {
        stroke-width: 0px;
      }

      .cls-2 {
        fill: #ca252b;
      }

      .cls-3 {
        fill: #fff;
      }
    </style>
  </defs>
  <g id="Layer_1-2" data-name="Layer 1">
    <g>
      <path class="cls-3" d="M34.17,74.58h0s0,0,0,0M34.17,74.59s0,0,0,0c0,0,0,0,0,0M34.18,74.6s0,0,0,0c0,0,0,0,0,0M34.18,74.6s0,0,0,0c0,0,0,0,0,0M34.18,74.6h0s0,0,0,0M34.18,74.61s0,0,0,0c0,0,0,0,0,0M34.18,74.61s0,0,0,0c0,0,0,0,0,0M34.19,74.62s0,0,0,0c0,0,0,0,0,0M68.93,0h-15.4c-1.68,0-3.6,1.24-4.29,2.77,0,0-9.12,20.23-10.51,23.25-1.35,2.94-3.28,9.24-20.68,8.1-1.67-.11-2.45,1.03-1.74,2.55,15.74,33.4,17.67,37.51,17.86,37.91.72,1.52,1.88,1.52,2.59,0L70.67,2.75c.72-1.52-.06-2.75-1.74-2.75"/>
      <path class="cls-2" d="M.26,2.73H.26s0,0,0,0M.25,2.71s0,.01.01.02c0,0,0-.02-.01-.02M.25,2.7s0,0,0,.01c0,0,0,0,0-.01M.24,2.69s0,0,0,.01c0,0,0,0,0-.01M.24,2.68s0,0,0,0c0,0,0,0,0,0M.24,2.68s0,0,0,0t0,0M31.88,24.31c-.53-1.24-9.88-21.54-9.88-21.54C21.3,1.24,19.38,0,17.7,0H2C.33,0-.45,1.23.27,2.75c0,0,0,0,0,0,.22.45.69,1.07,11.48,23.79.89,1.79,2.34,2.93,4.23,3.23,4.23.66,11.3.23,14.01-.89,1.89-.78,2.56-3,1.89-4.56"/>
      <path class="cls-1" d="M256.97,69.83c3.97,0,6.76-2.05,6.76-5.71v-.05c0-3.21-2.11-4.55-5.84-5.53-3.18-.82-3.97-1.21-3.97-2.42v-.05c0-.9.82-1.61,2.37-1.61s3.16.68,4.79,1.82l2.11-3.05c-1.87-1.5-4.16-2.34-6.84-2.34-3.76,0-6.45,2.21-6.45,5.55v.05c0,3.66,2.4,4.69,6.11,5.63,3.08.79,3.71,1.32,3.71,2.34v.05c0,1.08-1,1.74-2.66,1.74-2.11,0-3.84-.87-5.5-2.24l-2.4,2.87c2.21,1.97,5.03,2.95,7.82,2.95M236.64,69.88c3.55,0,5.66-1.26,7.55-3.29l-2.58-2.61c-1.45,1.32-2.74,2.16-4.84,2.16-3.16,0-5.34-2.63-5.34-5.79v-.05c0-3.16,2.24-5.74,5.34-5.74,1.84,0,3.29.79,4.71,2.08l2.58-2.97c-1.71-1.68-3.79-2.84-7.26-2.84-5.66,0-9.61,4.29-9.61,9.53v.05c0,5.29,4.03,9.48,9.45,9.48M216.75,69.57h4.05v-18.42h-4.05v18.42ZM201.48,69.57h4.05v-14.69h5.61v-3.74h-15.27v3.74h5.61v14.69ZM176.8,69.57h14.03v-3.61h-10v-3.87h8.69v-3.61h-8.69v-3.74h9.87v-3.61h-13.9v18.42ZM158.07,69.57h13.24v-3.68h-9.19v-14.74h-4.05v18.42ZM135.2,69.57h4.05v-7.4h7.48v7.4h4.05v-18.42h-4.05v7.29h-7.48v-7.29h-4.05v18.42ZM120.03,69.57h4.05v-14.69h5.61v-3.74h-15.27v3.74h5.61v14.69ZM100.25,61.85l2.45-5.98,2.45,5.98h-4.9ZM92.99,69.57h4.13l1.68-4.13h7.79l1.68,4.13h4.24l-7.9-18.56h-3.74l-7.9,18.56Z"/>
      <path class="cls-1" d="M102.69,40.24l15.98-34.41h-6.16l-10.78,23.23-.02-4.42-8.71-18.81h-6.3l13.43,29.08,2.55,5.32ZM128.57,38.32h24.31v-5.1h-18.61v-8.68h16.29v-5.15h-16.29v-8.44h18.37v-5.1h-24.08v32.48ZM178.5,21.94h-6.09l-2.26,4.64v-15.54h8.31c4.22,0,6.73,1.9,6.73,5.38v.09c0,3.29-2.6,5.43-6.68,5.43M192.05,38.32l-8.77-12.3c4.5-1.3,7.7-4.5,7.7-9.84v-.09c0-2.83-.97-5.24-2.69-7.01-2.09-2.04-5.29-3.25-9.37-3.25h-14.48v32.48h5.71v-11.32h7.15l7.98,11.32h6.77ZM202.82,38.32h5.71V5.84h-5.71v32.48ZM222.97,11.04h22.98v-5.2h-24.17v32.48h5.71v-13.22h16.38v-5.2h-16.38v-6.71l-4.52-2.15ZM256.39,38.32h5.71V5.84h-5.71v32.48ZM275.35,38.32h24.31v-5.1h-18.61v-8.68h16.29v-5.15h-16.29v-8.44h18.37v-5.1h-24.08v32.48ZM334.61,22.17c0,6.36-4.45,10.95-11.28,10.95h-4.38l-2.03,4.15V11.04h6.41c6.82,0,11.28,4.69,11.28,11.04v.09ZM340.6,22.08v-.09c0-9.14-7.05-16.15-17.26-16.15h-12.11v32.48h12.11c10.21,0,17.26-7.1,17.26-16.24"/>
    </g>
  </g>
</svg>
